<svg width="96" height="96" viewBox="0 0 96 96" fill="none" xmlns="http://www.w3.org/2000/svg">
<path d="M86.0553 2.42216C86.0553 1.08308 84.9723 0 83.6331 0H24.8713C16.6202 0 9.92487 6.71508 9.92487 14.9465V81.0534C9.92487 89.3046 16.6399 96 24.8713 96H83.6529C84.9918 96 86.0751 94.917 86.0751 93.5778V27.4905C86.0751 26.1514 84.9918 25.0683 83.6529 25.0683H24.8713C19.2984 25.0683 14.7495 20.5194 14.7495 14.9465C14.7495 9.37353 19.2984 4.82463 24.8713 4.82463H83.6529C84.9723 4.82463 86.0553 3.74154 86.0553 2.42216ZM24.8713 29.8929H81.2307V91.1754H24.8713C19.2984 91.1754 14.7495 86.6265 14.7495 81.0534V25.9348C17.4079 28.3963 20.9722 29.8929 24.8713 29.8929Z" fill="black"/>
<path d="M25.6983 12.7606C24.3592 12.7606 23.2762 13.8437 23.2762 15.1828C23.2762 16.5218 24.3592 17.6049 25.6983 17.6049H80.8566C82.1955 17.6049 83.2788 16.5218 83.2788 15.1828C83.2788 13.8437 82.1955 12.7606 80.8566 12.7606H25.6983Z" fill="black"/>
<path d="M41.6619 61.4856H47.6262C48.6609 61.4856 49.5 60.6465 49.5 59.6118V53.6475C49.5 45.5577 42.9423 39 34.8525 39H28.8882C27.8534 39 27.0145 39.8388 27.0145 40.8738V46.8381C27.0145 54.9279 33.5721 61.4856 41.6619 61.4856ZM45.7524 53.6475V55.0881L33.4119 42.7476H34.8525C40.8726 42.7476 45.7524 47.6274 45.7524 53.6475ZM30.762 45.3975L43.1025 57.738H41.6619C35.6418 57.738 30.762 52.8582 30.762 46.8381V45.3975Z" fill="black"/>
<path d="M70.1118 48.369H67.8951C59.8053 48.369 53.2476 54.927 53.2476 63.0165V65.2332C53.2476 66.2682 54.0864 67.107 55.1214 67.107H57.3381C65.4279 67.107 71.9856 60.5493 71.9856 52.4595V50.2428C71.9856 49.2081 71.1465 48.369 70.1118 48.369ZM68.238 52.4595C68.238 58.4796 63.3582 63.3594 57.3381 63.3594H56.9952V63.0165C56.9952 56.9967 61.875 52.1166 67.8951 52.1166H68.238V52.4595Z" fill="black"/>
<path d="M53.238 69.8025C47.1078 63.6726 37.1691 63.6726 31.0371 69.8022L28.3049 72.5346C27.1656 73.6791 27.1656 75.5259 28.3019 76.6674L31.0368 79.4025C37.1691 85.5327 47.1078 85.5327 53.238 79.4025L55.9701 76.6704C57.1122 75.5283 57.1122 73.6767 55.9701 72.5346L53.238 69.8025ZM50.5881 72.4524L50.8638 72.7284H33.411L33.6867 72.4524C38.355 67.7859 45.9213 67.7859 50.5881 72.4524ZM33.6864 76.7523L33.4101 76.476H50.8644L50.5878 76.7526C45.9213 81.4191 38.355 81.4191 33.6864 76.7523Z" fill="black"/>
</svg>
