<svg width="96" height="96" viewBox="0 0 96 96" fill="none" xmlns="http://www.w3.org/2000/svg">
<path d="M70.9626 34.3404L51.6681 17.4456C50.6454 16.5605 49.3473 16.0688 47.9901 16.0688C46.6332 16.0688 45.3351 16.5605 44.3124 17.4456L37.4679 23.4444C37.0743 21.9889 36.858 20.4548 36.858 18.8617C36.858 15.0068 38.0775 11.3878 40.2804 8.69331C42.3651 6.13644 45.1185 4.72035 47.9901 4.72035C54.1266 4.72035 59.1222 11.0535 59.1222 18.8617C59.1222 20.1598 60.1845 21.2219 61.4826 21.2219C62.7807 21.2219 63.8427 20.1598 63.8427 18.8617C63.8427 8.45727 56.7228 0 47.9901 0C43.6632 0 39.6312 2.02581 36.6219 5.70375C33.7308 9.24402 32.1378 13.9054 32.1378 18.8617C32.1378 21.6546 32.649 24.3491 33.6129 26.8273L25.0375 34.3404C22.8937 36.2286 21.6546 38.9427 21.6546 41.7948V84.1599C21.6546 90.6897 26.965 96 33.4947 96H62.5053C69.0351 96 74.3454 90.6897 74.3454 84.1599V41.7948C74.3454 38.9427 73.1064 36.2286 70.9626 34.3404ZM69.6252 84.1599C69.6252 88.0935 66.4389 91.2798 62.5053 91.2798H33.4752C29.5415 91.2798 26.3553 88.0935 26.3553 84.1599V41.7948C26.3553 40.2999 27.0043 38.8641 28.1254 37.8807L35.8944 31.0755C36.1302 31.3902 36.3663 31.7049 36.6024 32.0196C39.6117 35.6976 43.6434 37.7235 47.9706 37.7235C49.2687 37.7235 50.3307 36.6612 50.3307 35.3631C50.3307 34.0653 49.2687 33.003 47.9706 33.003C45.0792 33.003 42.3453 31.587 40.2606 29.0301C39.9852 28.6761 39.7098 28.3221 39.4542 27.9484L47.4 20.9859C47.5968 20.8088 47.8131 20.7695 47.9706 20.7695C48.1278 20.7695 48.3441 20.8088 48.5409 20.9859L67.8354 37.8807C68.9565 38.8641 69.6054 40.2999 69.6054 41.7948V84.1599H69.6252Z" fill="black"/>
<path d="M50.5863 59.6928H45.3939C43.5648 59.6928 42.0699 58.1979 42.0699 56.3688C42.0699 54.5397 43.5648 53.0448 45.3939 53.0448H54.5397C55.8378 53.0448 56.8998 51.9828 56.8998 50.6847C56.8998 49.3866 55.8378 48.3246 54.5397 48.3246H50.3502V45.2562C50.3502 43.9581 49.2882 42.8961 47.9901 42.8961C46.692 42.8961 45.63 43.9581 45.63 45.2562V48.3246H45.3939C40.9488 48.3246 37.3497 51.9435 37.3497 56.3688C37.3497 60.8139 40.9686 64.413 45.3939 64.413H50.5863C52.4154 64.413 53.9103 65.9079 53.9103 67.737C53.9103 69.5661 52.4154 71.0607 50.5863 71.0607H41.2635C39.9654 71.0607 38.9034 72.123 38.9034 73.4211C38.9034 74.7192 39.9654 75.7812 41.2635 75.7812H45.63V78.9084C45.63 80.2065 46.692 81.2685 47.9901 81.2685C49.2882 81.2685 50.3502 80.2065 50.3502 78.9084V75.7812H50.6256C50.6454 75.7812 50.6649 75.7812 50.6847 75.7812C55.0707 75.7221 58.6305 72.1425 58.6305 67.737C58.6305 63.2919 55.0116 59.6928 50.5863 59.6928Z" fill="black"/>
</svg>
