<svg width="48" height="48" viewBox="0 0 48 48" fill="none" xmlns="http://www.w3.org/2000/svg">
<path d="M16.3199 33.792L24.6931 25.2792C26.4826 23.4599 26.6362 20.5076 24.511 19.0949C22.1263 17.5097 19.2434 16.512 16.3199 16.512C8.36701 16.512 1.91992 22.9591 1.91992 30.912C1.91992 38.865 8.36701 45.312 16.3199 45.312C20.201 45.312 23.9063 43.9683 26.4959 41.472L44.1714 23.7966C44.668 23.2998 45.0374 22.6802 45.242 22.0081C45.8345 20.0607 44.9663 17.9401 43.1631 16.9956C42.5567 16.6779 41.8824 16.512 41.1977 16.512H30.5279" stroke="white" stroke-width="2.5" stroke-linecap="round" stroke-linejoin="round"/>
<path d="M13.3997 30.9121L21.8011 22.2721C20.2497 21.2996 18.2266 20.7361 16.2638 20.7361C10.6748 20.7361 6.14404 25.2921 6.14404 30.9121C6.14404 36.5321 10.6748 41.0881 16.2638 41.0881C18.5877 41.0881 21.1397 40.3005 22.848 38.9761L41.28 20.7361H30.7752" stroke="white" stroke-width="2.5" stroke-linecap="round" stroke-linejoin="round"/>
<path d="M34.7519 42.624C35.7063 42.624 36.4799 41.8503 36.4799 40.896C36.4799 39.9416 35.7063 39.168 34.7519 39.168C33.7976 39.168 33.0239 39.9416 33.0239 40.896C33.0239 41.8503 33.7976 42.624 34.7519 42.624Z" fill="white"/>
<path d="M30.528 46.8481C31.4824 46.8481 32.256 46.0744 32.256 45.1201C32.256 44.1657 31.4824 43.3921 30.528 43.3921C29.5737 43.3921 28.8 44.1657 28.8 45.1201C28.8 46.0744 29.5737 46.8481 30.528 46.8481Z" fill="white"/>
<path d="M34.7519 46.8481C35.7063 46.8481 36.4799 46.0744 36.4799 45.1201C36.4799 44.1657 35.7063 43.3921 34.7519 43.3921C33.7976 43.3921 33.0239 44.1657 33.0239 45.1201C33.0239 46.0744 33.7976 46.8481 34.7519 46.8481Z" fill="white"/>
<path d="M38.976 42.624C39.9304 42.624 40.704 41.8503 40.704 40.896C40.704 39.9416 39.9304 39.168 38.976 39.168C38.0217 39.168 37.248 39.9416 37.248 40.896C37.248 41.8503 38.0217 42.624 38.976 42.624Z" fill="white"/>
<path d="M38.976 46.8481C39.9304 46.8481 40.704 46.0744 40.704 45.1201C40.704 44.1657 39.9304 43.3921 38.976 43.3921C38.0217 43.3921 37.248 44.1657 37.248 45.1201C37.248 46.0744 38.0217 46.8481 38.976 46.8481Z" fill="white"/>
<path d="M43.1999 42.624C44.1543 42.624 44.9279 41.8503 44.9279 40.896C44.9279 39.9416 44.1543 39.168 43.1999 39.168C42.2456 39.168 41.4719 39.9416 41.4719 40.896C41.4719 41.8503 42.2456 42.624 43.1999 42.624Z" fill="white"/>
<path d="M43.1999 46.8481C44.1543 46.8481 44.9279 46.0744 44.9279 45.1201C44.9279 44.1657 44.1543 43.3921 43.1999 43.3921C42.2456 43.3921 41.4719 44.1657 41.4719 45.1201C41.4719 46.0744 42.2456 46.8481 43.1999 46.8481Z" fill="white"/>
<path d="M1.03418 6.52808C0.946633 6.52808 0.872904 6.49813 0.813 6.43823C0.753096 6.37832 0.723145 6.30459 0.723145 6.21704V2.02146C0.723145 1.93391 0.753096 1.86018 0.813 1.80027C0.872904 1.73576 0.946633 1.70351 1.03418 1.70351H3.8059C3.88885 1.70351 3.95797 1.73346 4.01326 1.79336C4.07317 1.84866 4.10312 1.91778 4.10312 2.00072C4.10312 2.08367 4.07317 2.15279 4.01326 2.20808C3.95797 2.26338 3.88885 2.29103 3.8059 2.29103H1.35214V3.81858H3.55706C3.64001 3.81858 3.70913 3.84853 3.76442 3.90843C3.82433 3.96373 3.85429 4.03285 3.85429 4.11579C3.85429 4.19874 3.82433 4.26786 3.76442 4.32315C3.70913 4.37845 3.64001 4.4061 3.55706 4.4061H1.35214V5.94056H3.8059C3.88885 5.94056 3.95797 5.97051 4.01326 6.03042C4.07317 6.08571 4.10312 6.15483 4.10312 6.23778C4.10312 6.32072 4.07317 6.38984 4.01326 6.44514C3.95797 6.50043 3.88885 6.52808 3.8059 6.52808H1.03418ZM5.6493 6.56264C5.56174 6.56264 5.48802 6.53269 5.42811 6.47279C5.36821 6.41288 5.33826 6.33915 5.33826 6.2516V2.12514C5.33826 2.00072 5.38203 1.89474 5.46958 1.80719C5.55714 1.71503 5.66312 1.66895 5.78754 1.66895H5.87739C6.02485 1.66895 6.15157 1.73807 6.25755 1.87631L8.91867 5.71938V1.9869C8.91867 1.89935 8.94862 1.82562 9.00853 1.76571C9.06843 1.7012 9.14216 1.66895 9.22971 1.66895C9.31726 1.66895 9.39099 1.7012 9.4509 1.76571C9.51541 1.82562 9.54766 1.89935 9.54766 1.9869V6.11336C9.54766 6.23778 9.50158 6.34376 9.40942 6.43131C9.32187 6.51886 9.21589 6.56264 9.09147 6.56264H9.00853C8.9348 6.56264 8.86568 6.54651 8.80117 6.51426C8.73666 6.47739 8.68366 6.43131 8.64219 6.37602L5.96725 2.51221V6.2516C5.96725 6.33915 5.93499 6.41288 5.87048 6.47279C5.81058 6.53269 5.73685 6.56264 5.6493 6.56264ZM11.1494 6.52808C11.0388 6.52808 10.9443 6.48891 10.866 6.41058C10.7877 6.33224 10.7485 6.23778 10.7485 6.12719C10.7485 6.02581 10.7762 5.94056 10.8315 5.87144L13.7207 2.30485H11.0595C10.9766 2.30485 10.9052 2.2772 10.8453 2.22191C10.79 2.162 10.7623 2.09058 10.7623 2.00763C10.7623 1.92469 10.79 1.85327 10.8453 1.79336C10.9052 1.73346 10.9766 1.70351 11.0595 1.70351H14.0594C14.1884 1.70351 14.2898 1.74498 14.3635 1.82792C14.4418 1.91087 14.481 2.01224 14.481 2.13205C14.481 2.17813 14.4695 2.22651 14.4464 2.2772C14.428 2.32789 14.4027 2.37167 14.3704 2.40853L11.5157 5.94056H14.2252C14.3082 5.94056 14.3773 5.97051 14.4326 6.03042C14.4925 6.08571 14.5225 6.15483 14.5225 6.23778C14.5225 6.32072 14.4925 6.38984 14.4326 6.44514C14.3773 6.50043 14.3082 6.52808 14.2252 6.52808H11.1494ZM15.6954 6.56264C15.6032 6.56264 15.5272 6.53269 15.4673 6.47279C15.412 6.41288 15.3843 6.33915 15.3843 6.2516C15.3843 6.21474 15.3959 6.16866 15.4189 6.11336L17.1815 1.95234C17.2183 1.86939 17.269 1.80258 17.3335 1.75189C17.4027 1.69659 17.4856 1.66895 17.5824 1.66895H17.6515C17.7483 1.66895 17.8289 1.69659 17.8934 1.75189C17.9625 1.80258 18.0155 1.86939 18.0524 1.95234L19.8149 6.11336C19.838 6.16866 19.8495 6.21474 19.8495 6.2516C19.8495 6.33915 19.8195 6.41288 19.7596 6.47279C19.7043 6.53269 19.6306 6.56264 19.5385 6.56264C19.4739 6.56264 19.414 6.54651 19.3587 6.51426C19.3081 6.47739 19.2689 6.42901 19.2412 6.36911L18.792 5.29083H16.4419L15.9926 6.36911C15.965 6.42901 15.9235 6.47739 15.8682 6.51426C15.8175 6.54651 15.7599 6.56264 15.6954 6.56264ZM16.6838 4.71714H18.55L17.6169 2.47074L16.6838 4.71714ZM23.1317 6.52808C23.0211 6.52808 22.9267 6.48891 22.8483 6.41058C22.77 6.33224 22.7308 6.23778 22.7308 6.12719C22.7308 6.02581 22.7585 5.94056 22.8138 5.87144L25.703 2.30485H23.0419C22.9589 2.30485 22.8875 2.2772 22.8276 2.22191C22.7723 2.162 22.7447 2.09058 22.7447 2.00763C22.7447 1.92469 22.7723 1.85327 22.8276 1.79336C22.8875 1.73346 22.9589 1.70351 23.0419 1.70351H26.0417C26.1707 1.70351 26.2721 1.74498 26.3458 1.82792C26.4242 1.91087 26.4633 2.01224 26.4633 2.13205C26.4633 2.17813 26.4518 2.22651 26.4288 2.2772C26.4103 2.32789 26.385 2.37167 26.3527 2.40853L23.4981 5.94056H26.2076C26.2905 5.94056 26.3596 5.97051 26.4149 6.03042C26.4748 6.08571 26.5048 6.15483 26.5048 6.23778C26.5048 6.32072 26.4748 6.38984 26.4149 6.44514C26.3596 6.50043 26.2905 6.52808 26.2076 6.52808H23.1317ZM27.6777 6.56264C27.5856 6.56264 27.5095 6.53269 27.4496 6.47279C27.3943 6.41288 27.3667 6.33915 27.3667 6.2516C27.3667 6.21474 27.3782 6.16866 27.4012 6.11336L29.1638 1.95234C29.2007 1.86939 29.2514 1.80258 29.3159 1.75189C29.385 1.69659 29.4679 1.66895 29.5647 1.66895H29.6338C29.7306 1.66895 29.8112 1.69659 29.8757 1.75189C29.9449 1.80258 29.9979 1.86939 30.0347 1.95234L31.7973 6.11336C31.8203 6.16866 31.8318 6.21474 31.8318 6.2516C31.8318 6.33915 31.8019 6.41288 31.742 6.47279C31.6867 6.53269 31.613 6.56264 31.5208 6.56264C31.4563 6.56264 31.3964 6.54651 31.3411 6.51426C31.2904 6.47739 31.2512 6.42901 31.2236 6.36911L30.7743 5.29083H28.4242L27.9749 6.36911C27.9473 6.42901 27.9058 6.47739 27.8505 6.51426C27.7998 6.54651 27.7422 6.56264 27.6777 6.56264ZM28.6661 4.71714H30.5324L29.5993 2.47074L28.6661 4.71714ZM33.367 6.52808C33.2794 6.52808 33.2057 6.49813 33.1458 6.43823C33.0859 6.37832 33.0559 6.30459 33.0559 6.21704V2.02146C33.0559 1.93391 33.0859 1.86018 33.1458 1.80027C33.2057 1.73576 33.2794 1.70351 33.367 1.70351H34.7563C35.2816 1.70351 35.7263 1.82101 36.0903 2.05602C36.4589 2.28642 36.7354 2.58594 36.9197 2.95458C37.104 3.32322 37.1962 3.71029 37.1962 4.11579C37.1962 4.5213 37.104 4.90837 36.9197 5.27701C36.7354 5.64565 36.4589 5.94747 36.0903 6.18248C35.7263 6.41288 35.2816 6.52808 34.7563 6.52808H33.367ZM34.6802 5.94056C35.0581 5.94056 35.3899 5.86453 35.6756 5.71247C35.9613 5.55579 36.1824 5.34152 36.3391 5.06965C36.4958 4.79317 36.5741 4.47522 36.5741 4.11579C36.5741 3.75637 36.4958 3.44072 36.3391 3.16885C36.1824 2.89237 35.9613 2.6781 35.6756 2.52603C35.3899 2.36936 35.0581 2.29103 34.6802 2.29103H33.6849V5.94056H34.6802ZM38.7651 6.52808C38.6776 6.52808 38.6038 6.49813 38.5439 6.43823C38.484 6.37832 38.4541 6.30459 38.4541 6.21704V2.02146C38.4541 1.93391 38.484 1.86018 38.5439 1.80027C38.6038 1.73576 38.6776 1.70351 38.7651 1.70351H41.5368C41.6198 1.70351 41.6889 1.73346 41.7442 1.79336C41.8041 1.84866 41.834 1.91778 41.834 2.00072C41.834 2.08367 41.8041 2.15279 41.7442 2.20808C41.6889 2.26338 41.6198 2.29103 41.5368 2.29103H39.0831V3.81858H41.288C41.3709 3.81858 41.4401 3.84853 41.4954 3.90843C41.5553 3.96373 41.5852 4.03285 41.5852 4.11579C41.5852 4.19874 41.5553 4.26786 41.4954 4.32315C41.4401 4.37845 41.3709 4.4061 41.288 4.4061H39.0831V5.94056H41.5368C41.6198 5.94056 41.6889 5.97051 41.7442 6.03042C41.8041 6.08571 41.834 6.15483 41.834 6.23778C41.834 6.32072 41.8041 6.38984 41.7442 6.44514C41.6889 6.50043 41.6198 6.52808 41.5368 6.52808H38.7651ZM43.38 6.56264C43.2925 6.56264 43.2187 6.53269 43.1588 6.47279C43.0989 6.41288 43.069 6.33915 43.069 6.2516V2.12514C43.069 2.00072 43.1128 1.89474 43.2003 1.80719C43.2879 1.71503 43.3938 1.66895 43.5183 1.66895H43.6081C43.7556 1.66895 43.8823 1.73807 43.9883 1.87631L46.6494 5.71938V1.9869C46.6494 1.89935 46.6794 1.82562 46.7393 1.76571C46.7992 1.7012 46.8729 1.66895 46.9604 1.66895C47.048 1.66895 47.1217 1.7012 47.1816 1.76571C47.2461 1.82562 47.2784 1.89935 47.2784 1.9869V6.11336C47.2784 6.23778 47.2323 6.34376 47.1402 6.43131C47.0526 6.51886 46.9466 6.56264 46.8222 6.56264H46.7393C46.6655 6.56264 46.5964 6.54651 46.5319 6.51426C46.4674 6.47739 46.4144 6.43131 46.3729 6.37602L43.698 2.51221V6.2516C43.698 6.33915 43.6657 6.41288 43.6012 6.47279C43.5413 6.53269 43.4676 6.56264 43.38 6.56264Z" fill="white"/>
</svg>
