<svg width="125" height="125" viewBox="0 0 125 125" fill="none" xmlns="http://www.w3.org/2000/svg">
<path d="M42.5 88L64.3052 65.8314C68.9653 61.0936 69.3654 53.4053 63.831 49.7264C57.6209 45.5984 50.1132 43 42.5 43C21.7893 43 5 59.7893 5 80.5C5 101.211 21.7893 118 42.5 118C52.6071 118 62.2563 114.501 69 108L115.03 61.9704C116.323 60.6767 117.285 59.0632 117.818 57.3129V57.3129C119.361 52.2414 117.1 46.7192 112.404 44.2594V44.2594C110.825 43.4321 109.069 43 107.286 43H79.5" stroke="white" stroke-width="8" stroke-linecap="round" stroke-linejoin="round"/>
<path d="M34.895 80.5L56.7735 58C52.7336 55.4674 47.4649 54 42.3536 54C27.7989 54 16 65.8645 16 80.5C16 95.1355 27.7989 107 42.3536 107C48.4054 107 55.0511 104.949 59.5 101.5L107.5 54H80.1436" stroke="white" stroke-width="8" stroke-linecap="round" stroke-linejoin="round"/>
<circle cx="90.5" cy="106.5" r="4.5" fill="white"/>
<circle cx="79.5" cy="117.5" r="4.5" fill="white"/>
<circle cx="90.5" cy="117.5" r="4.5" fill="white"/>
<circle cx="101.5" cy="106.5" r="4.5" fill="white"/>
<circle cx="101.5" cy="117.5" r="4.5" fill="white"/>
<circle cx="112.5" cy="106.5" r="4.5" fill="white"/>
<circle cx="112.5" cy="117.5" r="4.5" fill="white"/>
<path d="M2.69338 17C2.46538 17 2.27338 16.922 2.11738 16.766C1.96138 16.61 1.88338 16.418 1.88338 16.19V5.264C1.88338 5.036 1.96138 4.844 2.11738 4.688C2.27338 4.52 2.46538 4.436 2.69338 4.436H9.91138C10.1274 4.436 10.3074 4.514 10.4514 4.67C10.6074 4.814 10.6854 4.994 10.6854 5.21C10.6854 5.426 10.6074 5.606 10.4514 5.75C10.3074 5.894 10.1274 5.966 9.91138 5.966H3.52138V9.944H9.26338C9.47938 9.944 9.65938 10.022 9.80338 10.178C9.95938 10.322 10.0374 10.502 10.0374 10.718C10.0374 10.934 9.95938 11.114 9.80338 11.258C9.65938 11.402 9.47938 11.474 9.26338 11.474H3.52138V15.47H9.91138C10.1274 15.47 10.3074 15.548 10.4514 15.704C10.6074 15.848 10.6854 16.028 10.6854 16.244C10.6854 16.46 10.6074 16.64 10.4514 16.784C10.3074 16.928 10.1274 17 9.91138 17H2.69338ZM14.7119 17.09C14.4839 17.09 14.2919 17.012 14.1359 16.856C13.9799 16.7 13.9019 16.508 13.9019 16.28V5.534C13.9019 5.21 14.0159 4.934 14.2439 4.706C14.4719 4.466 14.7479 4.346 15.0719 4.346H15.3059C15.6899 4.346 16.0199 4.526 16.2959 4.886L23.2259 14.894V5.174C23.2259 4.946 23.3039 4.754 23.4599 4.598C23.6159 4.43 23.8079 4.346 24.0359 4.346C24.2639 4.346 24.4559 4.43 24.6119 4.598C24.7799 4.754 24.8639 4.946 24.8639 5.174V15.92C24.8639 16.244 24.7439 16.52 24.5039 16.748C24.2759 16.976 23.9999 17.09 23.6759 17.09H23.4599C23.2679 17.09 23.0879 17.048 22.9199 16.964C22.7519 16.868 22.6139 16.748 22.5059 16.604L15.5399 6.542V16.28C15.5399 16.508 15.4559 16.7 15.2879 16.856C15.1319 17.012 14.9399 17.09 14.7119 17.09ZM29.0351 17C28.7471 17 28.5011 16.898 28.2971 16.694C28.0931 16.49 27.9911 16.244 27.9911 15.956C27.9911 15.692 28.0631 15.47 28.2071 15.29L35.7311 6.002H28.8011C28.5851 6.002 28.3991 5.93 28.2431 5.786C28.0991 5.63 28.0271 5.444 28.0271 5.228C28.0271 5.012 28.0991 4.826 28.2431 4.67C28.3991 4.514 28.5851 4.436 28.8011 4.436H36.6131C36.9491 4.436 37.2131 4.544 37.4051 4.76C37.6091 4.976 37.7111 5.24 37.7111 5.552C37.7111 5.672 37.6811 5.798 37.6211 5.93C37.5731 6.062 37.5071 6.176 37.4231 6.272L29.9891 15.47H37.0451C37.2611 15.47 37.4411 15.548 37.5851 15.704C37.7411 15.848 37.8191 16.028 37.8191 16.244C37.8191 16.46 37.7411 16.64 37.5851 16.784C37.4411 16.928 37.2611 17 37.0451 17H29.0351ZM40.8736 17.09C40.6336 17.09 40.4356 17.012 40.2796 16.856C40.1356 16.7 40.0636 16.508 40.0636 16.28C40.0636 16.184 40.0936 16.064 40.1536 15.92L44.7436 5.084C44.8396 4.868 44.9716 4.694 45.1396 4.562C45.3196 4.418 45.5356 4.346 45.7876 4.346H45.9676C46.2196 4.346 46.4296 4.418 46.5976 4.562C46.7776 4.694 46.9156 4.868 47.0116 5.084L51.6016 15.92C51.6616 16.064 51.6916 16.184 51.6916 16.28C51.6916 16.508 51.6136 16.7 51.4576 16.856C51.3136 17.012 51.1216 17.09 50.8816 17.09C50.7136 17.09 50.5576 17.048 50.4136 16.964C50.2816 16.868 50.1796 16.742 50.1076 16.586L48.9376 13.778H42.8176L41.6476 16.586C41.5756 16.742 41.4676 16.868 41.3236 16.964C41.1916 17.048 41.0416 17.09 40.8736 17.09ZM43.4476 12.284H48.3076L45.8776 6.434L43.4476 12.284ZM60.2391 17C59.9511 17 59.7051 16.898 59.5011 16.694C59.2971 16.49 59.1951 16.244 59.1951 15.956C59.1951 15.692 59.2671 15.47 59.4111 15.29L66.9351 6.002H60.0051C59.7891 6.002 59.6031 5.93 59.4471 5.786C59.3031 5.63 59.2311 5.444 59.2311 5.228C59.2311 5.012 59.3031 4.826 59.4471 4.67C59.6031 4.514 59.7891 4.436 60.0051 4.436H67.8171C68.1531 4.436 68.4171 4.544 68.6091 4.76C68.8131 4.976 68.9151 5.24 68.9151 5.552C68.9151 5.672 68.8851 5.798 68.8251 5.93C68.7771 6.062 68.7111 6.176 68.6271 6.272L61.1931 15.47H68.2491C68.4651 15.47 68.6451 15.548 68.7891 15.704C68.9451 15.848 69.0231 16.028 69.0231 16.244C69.0231 16.46 68.9451 16.64 68.7891 16.784C68.6451 16.928 68.4651 17 68.2491 17H60.2391ZM72.0776 17.09C71.8376 17.09 71.6396 17.012 71.4836 16.856C71.3396 16.7 71.2676 16.508 71.2676 16.28C71.2676 16.184 71.2976 16.064 71.3576 15.92L75.9476 5.084C76.0436 4.868 76.1756 4.694 76.3436 4.562C76.5236 4.418 76.7396 4.346 76.9916 4.346H77.1716C77.4236 4.346 77.6336 4.418 77.8016 4.562C77.9816 4.694 78.1196 4.868 78.2156 5.084L82.8056 15.92C82.8656 16.064 82.8956 16.184 82.8956 16.28C82.8956 16.508 82.8176 16.7 82.6616 16.856C82.5176 17.012 82.3256 17.09 82.0856 17.09C81.9176 17.09 81.7616 17.048 81.6176 16.964C81.4856 16.868 81.3836 16.742 81.3116 16.586L80.1416 13.778H74.0216L72.8516 16.586C72.7796 16.742 72.6716 16.868 72.5276 16.964C72.3956 17.048 72.2456 17.09 72.0776 17.09ZM74.6516 12.284H79.5116L77.0816 6.434L74.6516 12.284ZM86.8933 17C86.6653 17 86.4733 16.922 86.3173 16.766C86.1613 16.61 86.0833 16.418 86.0833 16.19V5.264C86.0833 5.036 86.1613 4.844 86.3173 4.688C86.4733 4.52 86.6653 4.436 86.8933 4.436H90.5113C91.8793 4.436 93.0373 4.742 93.9853 5.354C94.9453 5.954 95.6653 6.734 96.1453 7.694C96.6253 8.654 96.8653 9.662 96.8653 10.718C96.8653 11.774 96.6253 12.782 96.1453 13.742C95.6653 14.702 94.9453 15.488 93.9853 16.1C93.0373 16.7 91.8793 17 90.5113 17H86.8933ZM90.3133 15.47C91.2973 15.47 92.1613 15.272 92.9053 14.876C93.6493 14.468 94.2253 13.91 94.6333 13.202C95.0413 12.482 95.2453 11.654 95.2453 10.718C95.2453 9.782 95.0413 8.96 94.6333 8.252C94.2253 7.532 93.6493 6.974 92.9053 6.578C92.1613 6.17 91.2973 5.966 90.3133 5.966H87.7213V15.47H90.3133ZM100.951 17C100.723 17 100.531 16.922 100.375 16.766C100.219 16.61 100.141 16.418 100.141 16.19V5.264C100.141 5.036 100.219 4.844 100.375 4.688C100.531 4.52 100.723 4.436 100.951 4.436H108.169C108.385 4.436 108.565 4.514 108.709 4.67C108.865 4.814 108.943 4.994 108.943 5.21C108.943 5.426 108.865 5.606 108.709 5.75C108.565 5.894 108.385 5.966 108.169 5.966H101.779V9.944H107.521C107.737 9.944 107.917 10.022 108.061 10.178C108.217 10.322 108.295 10.502 108.295 10.718C108.295 10.934 108.217 11.114 108.061 11.258C107.917 11.402 107.737 11.474 107.521 11.474H101.779V15.47H108.169C108.385 15.47 108.565 15.548 108.709 15.704C108.865 15.848 108.943 16.028 108.943 16.244C108.943 16.46 108.865 16.64 108.709 16.784C108.565 16.928 108.385 17 108.169 17H100.951ZM112.969 17.09C112.741 17.09 112.549 17.012 112.393 16.856C112.237 16.7 112.159 16.508 112.159 16.28V5.534C112.159 5.21 112.273 4.934 112.501 4.706C112.729 4.466 113.005 4.346 113.329 4.346H113.563C113.947 4.346 114.277 4.526 114.553 4.886L121.483 14.894V5.174C121.483 4.946 121.561 4.754 121.717 4.598C121.873 4.43 122.065 4.346 122.293 4.346C122.521 4.346 122.713 4.43 122.869 4.598C123.037 4.754 123.121 4.946 123.121 5.174V15.92C123.121 16.244 123.001 16.52 122.761 16.748C122.533 16.976 122.257 17.09 121.933 17.09H121.717C121.525 17.09 121.345 17.048 121.177 16.964C121.009 16.868 120.871 16.748 120.763 16.604L113.797 6.542V16.28C113.797 16.508 113.713 16.7 113.545 16.856C113.389 17.012 113.197 17.09 112.969 17.09Z" fill="white"/>
</svg>
