<svg width="512" height="512" viewBox="0 0 512 512" fill="none" xmlns="http://www.w3.org/2000/svg">
<path d="M174.08 360.448L263.394 269.645C282.482 250.239 284.121 218.748 261.452 203.679C236.015 186.771 205.264 176.128 174.08 176.128C89.249 176.128 20.48 244.897 20.48 329.728C20.48 414.56 89.249 483.328 174.08 483.328C215.479 483.328 255.002 468.996 282.624 442.368L471.163 253.831C476.459 248.532 480.399 241.923 482.582 234.754C488.903 213.981 479.642 191.362 460.407 181.286C453.939 177.898 446.747 176.128 439.443 176.128H325.632" stroke="white" stroke-width="29" stroke-linecap="round" stroke-linejoin="round"/>
<path d="M142.93 329.728L232.544 237.568C215.997 227.195 194.416 221.184 173.48 221.184C113.864 221.184 65.536 269.781 65.536 329.728C65.536 389.675 113.864 438.272 173.48 438.272C198.269 438.272 225.489 429.871 243.712 415.744L440.32 221.184H328.268" stroke="white" stroke-width="29" stroke-linecap="round" stroke-linejoin="round"/>
<path d="M370.688 454.656C380.868 454.656 389.12 446.404 389.12 436.224C389.12 426.044 380.868 417.792 370.688 417.792C360.508 417.792 352.256 426.044 352.256 436.224C352.256 446.404 360.508 454.656 370.688 454.656Z" fill="white"/>
<path d="M325.632 499.712C335.812 499.712 344.064 491.46 344.064 481.28C344.064 471.1 335.812 462.848 325.632 462.848C315.452 462.848 307.2 471.1 307.2 481.28C307.2 491.46 315.452 499.712 325.632 499.712Z" fill="white"/>
<path d="M370.688 499.712C380.868 499.712 389.12 491.46 389.12 481.28C389.12 471.1 380.868 462.848 370.688 462.848C360.508 462.848 352.256 471.1 352.256 481.28C352.256 491.46 360.508 499.712 370.688 499.712Z" fill="white"/>
<path d="M415.744 454.656C425.924 454.656 434.176 446.404 434.176 436.224C434.176 426.044 425.924 417.792 415.744 417.792C405.564 417.792 397.312 426.044 397.312 436.224C397.312 446.404 405.564 454.656 415.744 454.656Z" fill="white"/>
<path d="M415.744 499.712C425.924 499.712 434.176 491.46 434.176 481.28C434.176 471.1 425.924 462.848 415.744 462.848C405.564 462.848 397.312 471.1 397.312 481.28C397.312 491.46 405.564 499.712 415.744 499.712Z" fill="white"/>
<path d="M460.8 454.656C470.98 454.656 479.232 446.404 479.232 436.224C479.232 426.044 470.98 417.792 460.8 417.792C450.62 417.792 442.368 426.044 442.368 436.224C442.368 446.404 450.62 454.656 460.8 454.656Z" fill="white"/>
<path d="M460.8 499.712C470.98 499.712 479.232 491.46 479.232 481.28C479.232 471.1 470.98 462.848 460.8 462.848C450.62 462.848 442.368 471.1 442.368 481.28C442.368 491.46 450.62 499.712 460.8 499.712Z" fill="white"/>
<path d="M11.0321 69.632C10.0982 69.632 9.31179 69.3126 8.67282 68.6736C8.03384 68.0346 7.71436 67.2482 7.71436 66.3143V21.5614C7.71436 20.6275 8.03384 19.8411 8.67282 19.2021C9.31179 18.514 10.0982 18.1699 11.0321 18.1699H40.597C41.4819 18.1699 42.2191 18.4894 42.809 19.1284C43.4479 19.7182 43.7674 20.4555 43.7674 21.3402C43.7674 22.2249 43.4479 22.9622 42.809 23.5521C42.2191 24.1419 41.4819 24.4368 40.597 24.4368H14.4236V40.7307H37.9428C38.8276 40.7307 39.5649 41.0502 40.1547 41.6891C40.7937 42.279 41.1132 43.0162 41.1132 43.901C41.1132 44.7857 40.7937 45.523 40.1547 46.1128C39.5649 46.7026 38.8276 46.9976 37.9428 46.9976H14.4236V63.3652H40.597C41.4819 63.3652 42.2191 63.6847 42.809 64.3236C43.4479 64.9135 43.7674 65.6507 43.7674 66.5355C43.7674 67.4202 43.4479 68.1575 42.809 68.7473C42.2191 69.3371 41.4819 69.632 40.597 69.632H11.0321ZM60.26 70.0007C59.3261 70.0007 58.5397 69.6812 57.9007 69.0422C57.2617 68.4033 56.9422 67.6168 56.9422 66.6829V22.6673C56.9422 21.3402 57.4092 20.2097 58.343 19.2758C59.2769 18.2928 60.4074 17.8013 61.7345 17.8013H62.693C64.2659 17.8013 65.6175 18.5385 66.748 20.0131L95.1333 61.0059V21.1928C95.1333 20.2589 95.4528 19.4724 96.0918 18.8335C96.7308 18.1453 97.5172 17.8013 98.4511 17.8013C99.385 17.8013 100.171 18.1453 100.81 18.8335C101.499 19.4724 101.843 20.2589 101.843 21.1928V65.2084C101.843 66.5355 101.351 67.666 100.368 68.5999C99.4341 69.5337 98.3036 70.0007 96.9765 70.0007H96.0918C95.3053 70.0007 94.5681 69.8287 93.8799 69.4846C93.1918 69.0914 92.6266 68.5999 92.1842 68.01L63.6515 26.7961V66.6829C63.6515 67.6168 63.3074 68.4033 62.6193 69.0422C61.9803 69.6812 61.1939 70.0007 60.26 70.0007ZM118.928 69.632C117.748 69.632 116.741 69.2143 115.905 68.3787C115.069 67.5431 114.652 66.5355 114.652 65.3558C114.652 64.2745 114.946 63.3652 115.536 62.6279L146.355 24.5842H117.969C117.085 24.5842 116.323 24.2893 115.684 23.6995C115.094 23.0605 114.799 22.2987 114.799 21.4139C114.799 20.5292 115.094 19.7673 115.684 19.1284C116.323 18.4894 117.085 18.1699 117.969 18.1699H149.967C151.344 18.1699 152.425 18.6123 153.211 19.497C154.047 20.3817 154.465 21.4631 154.465 22.741C154.465 23.2326 154.342 23.7487 154.096 24.2893C153.899 24.83 153.629 25.2969 153.285 25.6902L122.835 63.3652H151.737C152.622 63.3652 153.359 63.6847 153.949 64.3236C154.588 64.9135 154.907 65.6507 154.907 66.5355C154.907 67.4202 154.588 68.1575 153.949 68.7473C153.359 69.3371 152.622 69.632 151.737 69.632H118.928ZM167.418 70.0007C166.435 70.0007 165.624 69.6812 164.985 69.0422C164.395 68.4033 164.101 67.6168 164.101 66.6829C164.101 66.2897 164.223 65.7982 164.469 65.2084L183.27 20.8241C183.663 19.9394 184.204 19.2267 184.892 18.686C185.629 18.0962 186.514 17.8013 187.546 17.8013H188.283C189.316 17.8013 190.176 18.0962 190.864 18.686C191.601 19.2267 192.166 19.9394 192.56 20.8241L211.36 65.2084C211.606 65.7982 211.729 66.2897 211.729 66.6829C211.729 67.6168 211.409 68.4033 210.77 69.0422C210.181 69.6812 209.394 70.0007 208.411 70.0007C207.723 70.0007 207.084 69.8287 206.494 69.4846C205.953 69.0914 205.536 68.5753 205.241 67.9363L200.448 56.4347H175.381L170.589 67.9363C170.294 68.5753 169.851 69.0914 169.262 69.4846C168.721 69.8287 168.106 70.0007 167.418 70.0007ZM177.961 50.3153H197.868L187.915 26.3537L177.961 50.3153ZM246.739 69.632C245.56 69.632 244.552 69.2143 243.717 68.3787C242.881 67.5431 242.463 66.5355 242.463 65.3558C242.463 64.2745 242.758 63.3652 243.348 62.6279L274.166 24.5842H245.781C244.896 24.5842 244.134 24.2893 243.495 23.6995C242.906 23.0605 242.611 22.2987 242.611 21.4139C242.611 20.5292 242.906 19.7673 243.495 19.1284C244.134 18.4894 244.896 18.1699 245.781 18.1699H277.779C279.155 18.1699 280.236 18.6123 281.023 19.497C281.859 20.3817 282.276 21.4631 282.276 22.741C282.276 23.2326 282.153 23.7487 281.908 24.2893C281.711 24.83 281.441 25.2969 281.097 25.6902L250.647 63.3652H279.548C280.433 63.3652 281.17 63.6847 281.76 64.3236C282.399 64.9135 282.719 65.6507 282.719 66.5355C282.719 67.4202 282.399 68.1575 281.76 68.7473C281.17 69.3371 280.433 69.632 279.548 69.632H246.739ZM295.23 70.0007C294.247 70.0007 293.436 69.6812 292.797 69.0422C292.207 68.4033 291.912 67.6168 291.912 66.6829C291.912 66.2897 292.035 65.7982 292.281 65.2084L311.081 20.8241C311.475 19.9394 312.015 19.2267 312.703 18.686C313.441 18.0962 314.325 17.8013 315.358 17.8013H316.095C317.127 17.8013 317.987 18.0962 318.675 18.686C319.413 19.2267 319.978 19.9394 320.371 20.8241L339.172 65.2084C339.418 65.7982 339.54 66.2897 339.54 66.6829C339.54 67.6168 339.221 68.4033 338.582 69.0422C337.992 69.6812 337.206 70.0007 336.223 70.0007C335.535 70.0007 334.896 69.8287 334.306 69.4846C333.765 69.0914 333.347 68.5753 333.052 67.9363L328.26 56.4347H303.193L298.4 67.9363C298.105 68.5753 297.663 69.0914 297.073 69.4846C296.532 69.8287 295.918 70.0007 295.23 70.0007ZM305.773 50.3153H325.68L315.726 26.3537L305.773 50.3153ZM355.915 69.632C354.981 69.632 354.195 69.3126 353.556 68.6736C352.917 68.0346 352.597 67.2482 352.597 66.3143V21.5614C352.597 20.6275 352.917 19.8411 353.556 19.2021C354.195 18.514 354.981 18.1699 355.915 18.1699H370.734C376.338 18.1699 381.081 19.4233 384.964 21.93C388.896 24.3876 391.845 27.5825 393.811 31.5147C395.777 35.4468 396.76 39.5756 396.76 43.901C396.76 48.2264 395.777 52.3551 393.811 56.2873C391.845 60.2194 388.896 63.4389 384.964 65.9456C381.081 68.4032 376.338 69.632 370.734 69.632H355.915ZM369.923 63.3652C373.954 63.3652 377.493 62.5542 380.54 60.9321C383.588 59.261 385.947 56.9754 387.618 54.0754C389.289 51.1263 390.125 47.7348 390.125 43.901C390.125 40.0671 389.289 36.7002 387.618 33.8002C385.947 30.8511 383.588 28.5656 380.54 26.9435C377.493 25.2724 373.954 24.4368 369.923 24.4368H359.306V63.3652H369.923ZM413.495 69.632C412.561 69.632 411.775 69.3126 411.136 68.6736C410.497 68.0346 410.178 67.2482 410.178 66.3143V21.5614C410.178 20.6275 410.497 19.8411 411.136 19.2021C411.775 18.514 412.561 18.1699 413.495 18.1699H443.06C443.945 18.1699 444.682 18.4894 445.272 19.1284C445.911 19.7182 446.231 20.4555 446.231 21.3402C446.231 22.2249 445.911 22.9622 445.272 23.5521C444.682 24.1419 443.945 24.4368 443.06 24.4368H416.887V40.7307H440.406C441.291 40.7307 442.028 41.0502 442.618 41.6891C443.257 42.279 443.576 43.0162 443.576 43.901C443.576 44.7857 443.257 45.523 442.618 46.1128C442.028 46.7026 441.291 46.9976 440.406 46.9976H416.887V63.3652H443.06C443.945 63.3652 444.682 63.6847 445.272 64.3236C445.911 64.9135 446.231 65.6507 446.231 66.5355C446.231 67.4202 445.911 68.1575 445.272 68.7473C444.682 69.3371 443.945 69.632 443.06 69.632H413.495ZM462.721 70.0007C461.787 70.0007 461.001 69.6812 460.362 69.0422C459.723 68.4033 459.403 67.6168 459.403 66.6829V22.6673C459.403 21.3402 459.87 20.2097 460.804 19.2758C461.738 18.2928 462.869 17.8013 464.196 17.8013H465.154C466.727 17.8013 468.079 18.5385 469.209 20.0131L497.594 61.0059V21.1928C497.594 20.2589 497.914 19.4724 498.553 18.8335C499.192 18.1453 499.978 17.8013 500.912 17.8013C501.846 17.8013 502.633 18.1453 503.272 18.8335C503.96 19.4724 504.304 20.2589 504.304 21.1928V65.2084C504.304 66.5355 503.812 67.666 502.829 68.5999C501.895 69.5337 500.765 70.0007 499.438 70.0007H498.553C497.766 70.0007 497.029 69.8287 496.341 69.4846C495.653 69.0914 495.088 68.5999 494.645 68.01L466.113 26.7961V66.6829C466.113 67.6168 465.769 68.4033 465.08 69.0422C464.441 69.6812 463.655 70.0007 462.721 70.0007Z" fill="white"/>
</svg>
