<svg width="32" height="32" viewBox="0 0 32 32" fill="none" xmlns="http://www.w3.org/2000/svg">
<path d="M27.5 15.5C28.7726 14.234 29.7449 12.6635 29.7449 10.8766C29.7515 9.08308 29.0526 7.40165 27.7866 6.13563C26.5205 4.86961 24.8391 4.17066 23.0522 4.17066C21.2652 4.17066 19.5772 4.86961 18.3112 6.13563L16.8078 7.63903C16.3792 8.06104 15.6275 8.06104 15.2055 7.63903L13.6955 6.12903C12.4229 4.85642 10.7414 4.15747 8.94789 4.15747C7.16755 4.15747 5.48612 4.85642 4.2201 6.11585C2.95407 7.38187 2.26172 9.0633 2.26172 10.8502C2.26831 12.6438 2.96726 14.3252 4.23328 15.5912L16.0165 27.3745L18.5 24.8895" stroke="black" stroke-width="3" stroke-linecap="round" stroke-linejoin="round"/>
<path d="M25.9874 18.6953C25.9874 19.5237 25.3159 20.1953 24.4874 20.1953C23.659 20.1953 22.9874 19.5237 22.9874 18.6953C22.9874 17.8669 23.659 17.1953 24.4874 17.1953C25.3159 17.1953 25.9874 17.8669 25.9874 18.6953Z" fill="black"/>
<path d="M23.0854 22C23.0854 22.8284 22.4138 23.5 21.5854 23.5C20.7569 23.5 20.0854 22.8284 20.0854 22C20.0854 21.1716 20.7569 20.5 21.5854 20.5C22.4138 20.5 23.0854 21.1716 23.0854 22Z" fill="black"/>
</svg>
