<svg width="125" height="126" viewBox="0 0 125 126" fill="none" xmlns="http://www.w3.org/2000/svg">
<path d="M42.5 92L64.3052 69.8314C68.9653 65.0936 69.3654 57.4053 63.831 53.7264C57.6209 49.5984 50.1132 47 42.5 47C21.7893 47 5 63.7893 5 84.5C5 105.211 21.7893 122 42.5 122C52.6071 122 62.2563 118.501 69 112L115.03 65.9704C116.323 64.6767 117.285 63.0632 117.818 61.3129V61.3129C119.361 56.2414 117.1 50.7192 112.404 48.2594V48.2594C110.825 47.4321 109.069 47 107.286 47H79.5" stroke="black" stroke-width="8" stroke-linecap="round" stroke-linejoin="round"/>
<path d="M34.895 84.5L56.7735 62C52.7336 59.4674 47.4649 58 42.3536 58C27.7989 58 16 69.8645 16 84.5C16 99.1355 27.7989 111 42.3536 111C48.4054 111 55.0511 108.949 59.5 105.5L107.5 58H80.1436" stroke="black" stroke-width="8" stroke-linecap="round" stroke-linejoin="round"/>
<circle cx="90.5" cy="110.5" r="4.5" fill="black"/>
<circle cx="79.5" cy="121.5" r="4.5" fill="black"/>
<circle cx="90.5" cy="121.5" r="4.5" fill="black"/>
<circle cx="101.5" cy="110.5" r="4.5" fill="black"/>
<circle cx="101.5" cy="121.5" r="4.5" fill="black"/>
<circle cx="112.5" cy="110.5" r="4.5" fill="black"/>
<circle cx="112.5" cy="121.5" r="4.5" fill="black"/>
<path d="M1.58523 18V4.90909H9.4858V6.31534H3.17045V10.7386H9.0767V12.1449H3.17045V16.5938H9.58807V18H1.58523ZM23.9837 4.90909V18H22.4496L15.3161 7.72159H15.1883V18H13.603V4.90909H15.1371L22.2962 15.2131H22.4241V4.90909H23.9837ZM27.9811 18V16.8494L35.0379 6.31534H27.9044V4.90909H36.93V6.05966L29.8732 16.5938H37.0067V18H27.9811ZM41.4627 18H39.8008L44.6076 4.90909H46.244L51.0508 18H49.3888L45.4769 6.98011H45.3746L41.4627 18ZM42.0763 12.8864H48.7752V14.2926H42.0763V12.8864ZM60.2377 18V16.8494L67.2945 6.31534H60.161V4.90909H69.1865V6.05966L62.1297 16.5938H69.2632V18H60.2377ZM73.7193 18H72.0573L76.8642 4.90909H78.5005L83.3073 18H81.6454L77.7335 6.98011H77.6312L73.7193 18ZM74.3329 12.8864H81.0318V14.2926H74.3329V12.8864ZM90.6462 18H86.6064V4.90909H90.8251C92.095 4.90909 93.1817 5.17116 94.0851 5.69531C94.9885 6.2152 95.681 6.96307 96.1625 7.93892C96.644 8.91051 96.8848 10.0739 96.8848 11.429C96.8848 12.7926 96.6419 13.9666 96.1561 14.951C95.6703 15.9311 94.9629 16.6854 94.034 17.2138C93.105 17.7379 91.9757 18 90.6462 18ZM88.1916 16.5938H90.5439C91.6263 16.5938 92.5233 16.3849 93.235 15.9673C93.9466 15.5497 94.4771 14.9553 94.8266 14.1839C95.176 13.4126 95.3507 12.4943 95.3507 11.429C95.3507 10.3722 95.1781 9.46236 94.833 8.69957C94.4878 7.93253 93.9722 7.34446 93.2861 6.93537C92.6 6.52202 91.7456 6.31534 90.7229 6.31534H88.1916V16.5938ZM100.804 18V4.90909H108.704V6.31534H102.389V10.7386H108.295V12.1449H102.389V16.5938H108.807V18H100.804ZM123.202 4.90909V18H121.668L114.535 7.72159H114.407V18H112.822V4.90909H114.356L121.515 15.2131H121.643V4.90909H123.202Z" fill="black"/>
</svg>
