<svg width="96" height="96" viewBox="0 0 96 96" fill="none" xmlns="http://www.w3.org/2000/svg">
<path d="M80 56H16V32H36.32L28 43.32L34.48 48L44 35.04L48 29.6L52 35.04L61.52 48L68 43.32L59.68 32H80M80 76H16V68H80M36 16C37.0609 16 38.0783 16.4214 38.8284 17.1716C39.5786 17.9217 40 18.9391 40 20C40 21.0609 39.5786 22.0783 38.8284 22.8284C38.0783 23.5786 37.0609 24 36 24C34.9391 24 33.9217 23.5786 33.1716 22.8284C32.4214 22.0783 32 21.0609 32 20C32 18.9391 32.4214 17.9217 33.1716 17.1716C33.9217 16.4214 34.9391 16 36 16ZM60 16C61.0609 16 62.0783 16.4214 62.8284 17.1716C63.5786 17.9217 64 18.9391 64 20C64 21.0609 63.5786 22.0783 62.8284 22.8284C62.0783 23.5786 61.0609 24 60 24C58.9391 24 57.9217 23.5786 57.1716 22.8284C56.4214 22.0783 56 21.0609 56 20C56 18.9391 56.4214 17.9217 57.1716 17.1716C57.9217 16.4214 58.9391 16 60 16ZM80 24H71.28C71.72 22.76 72 21.4 72 20C72 16.8174 70.7357 13.7652 68.4853 11.5147C66.2348 9.26428 63.1826 8 60 8C55.8 8 52.16 10.16 50 13.4L48 16L46 13.36C43.84 10.16 40.2 8 36 8C32.8174 8 29.7652 9.26428 27.5147 11.5147C25.2643 13.7652 24 16.8174 24 20C24 21.4 24.28 22.76 24.72 24H16C11.56 24 8 27.56 8 32V76C8 80.44 11.56 84 16 84H80C84.44 84 88 80.44 88 76V32C88 27.56 84.44 24 80 24Z" fill="black"/>
</svg>
